<?xml version="1.0" encoding="UTF-8" standalone="no"?>
<svg
   xmlns:dc="http://purl.org/dc/elements/1.1/"
   xmlns:cc="http://creativecommons.org/ns#"
   xmlns:rdf="http://www.w3.org/1999/02/22-rdf-syntax-ns#"
   xmlns:svg="http://www.w3.org/2000/svg"
   xmlns="http://www.w3.org/2000/svg"
   id="svg58"
   xml:space="preserve"
   viewBox="0 0 1024 768"
   y="0px"
   x="0px"
   version="1.1"><metadata
     id="metadata64"><rdf:RDF><cc:Work
         rdf:about=""><dc:format>image/svg+xml</dc:format><dc:type
           rdf:resource="http://purl.org/dc/dcmitype/StillImage" /></cc:Work></rdf:RDF></metadata><defs
     id="defs62" /><circle
     id="circle2"
     fill="#ff9800"
     r="26.40884"
     cx="361.69407"
     cy="390.68423" /><path
     id="path4"
     d="m197.89672 398.32463l-43.57516-58.64419v58.64419h-13.78613v-81.77463h13.55163l43.80966 58.76144v-58.76144h13.55163v81.77467z" /><path
     id="path6"
     d="m447.98833 398.32463-32.59208-81.77463h14.8359l25.23275 66.46978 25.46724-66.46978h14.36964l-33.06107 81.77467z" /><path
     id="path8"
     d="m519.24208 379.86769l-7.82559 18.45694h-14.36963l36.09859-81.77463h14.13514l35.74684 81.77467h-14.71864l-7.82832-18.45694zm20.56192-48.59908l-15.42213 36.33172h30.84154z" /><path
     id="path10"
     d="m634.42273 316.55c24.532 0 42.28817 17.17267 42.28817 40.88665 0 23.5981-17.87342 40.888-42.63991 40.888h-33.17558v-81.77465zm-19.74393 69.39275h20.09295c15.8884 0 28.03851-11.8011 28.03851-28.38889 0-16.705-12.49913-28.62066-28.622-28.62066h-19.50946z" /><path
     id="path12"
     d="m712.2178 328.9332v22.07934h39.95413v12.38188h-39.95413v22.54833h46.0292v12.38188h-59.81259v-81.77463h58.41106v12.3832z" /><path
     id="path14"
     d="m869.68117 398.32463v-81.77463h13.7834v81.77467z" /><path
     id="path16"
     d="m267.95754 455.71591c7.03213 0 12.12285 4.92166 12.12285 11.722 0 6.76218-5.12344 11.71929-12.22237 11.71929h-9.51068v-23.44129zm-5.65923 19.89117h5.76012a7.85776 7.85776 0 0 0 8.03691 -8.13643 7.99194 7.99194 0 0 0 -8.2046 -8.2046h-5.59243z" /><path
     id="path18"
     d="m293.6252 459.26605v6.32864h11.45208v3.55014h-11.45208v6.46225h13.19443v3.55014h-17.1454v-23.44131h16.74321v3.55014z" /><path
     id="path20"
     d="m320.96568 459.26605v6.76495h10.6477v3.5147h-10.6477v9.61156h-3.951v-23.44135h15.73843l-0.03272 3.55014z" /><path
     id="path22"
     d="m341.64213 479.15722v-23.44131h3.951v23.44131z" /><path
     id="path24"
     d="m381.3045 455.71591c4.85623 0 7.86922 2.21134 7.86922 5.85964a5.13063 5.13063 0 0 1 -4.1173 5.22433 5.689 5.689 0 0 1 5.02256 5.92782c0 4.01913-3.24749 6.42952-8.54 6.42952h-10.41319v-23.44131zm-6.22775 9.71245h6.02871c2.51127 0 4.0164-1.17247 4.0164-3.14932 0-1.97412-1.50513-3.04571-4.0164-3.04571h-6.02871zm0 10.21144h6.02871c3.08115 0 4.92166-1.2052 4.92166-3.41381 0-2.07774-1.84051-3.31565-4.92166-3.31565h-6.02871z" /><path
     id="path26"
     d="m410.72271 472.05693a10.49625 10.49625 0 0 1 -1.07158 0.03545h-5.55971v7.06484h-3.951v-23.44131h9.51068c5.99325 0 9.44251 2.91482 9.44251 8.00282 0 3.75192-1.74235 6.3968-4.85623 7.602l5.257 7.83649h-4.4854zm-1.07158-3.51469c3.61558 0 5.69332-1.54058 5.69332-4.72262 0-3.08116-2.07774-4.55357-5.69332-4.55357h-5.55971v9.27619z" /><path
     id="path28"
     d="m429.725 479.15722v-23.44131h3.951v23.44131z" /><path
     id="path30"
     d="m454.816 455.71591c7.03212 0 12.12012 4.92166 12.12012 11.722 0 6.76218-5.12345 11.71929-12.221 11.71929h-9.51068v-23.44129zm-5.6606 19.89117h5.75876a7.85729 7.85729 0 0 0 8.03827 -8.13643 7.99194 7.99194 0 0 0 -8.2046 -8.2046h-5.59243z" /><path
     id="path32"
     d="m495.08637 467.637v8.64086a15.90029 15.90029 0 0 1 -9.10986 3.04571c-6.93123 0-12.32189-5.18888-12.32189-11.88562 0-6.69947 5.4561-11.82291 12.55639-11.82291a14.07806 14.07806 0 0 1 9.009 3.28293l-2.24407 2.9121a10.18484 10.18484 0 0 0 -6.7649 -2.67761 8.32507 8.32507 0 1 0 0.03272 16.64369 10.90963 10.90963 0 0 0 5.39338 -1.60874v-6.53041z" /><path
     id="path34"
     d="m510.00134 459.26605v6.32864h11.45208v3.55014h-11.45208v6.46225h13.19443v3.55014h-17.1454v-23.44131h16.74185v3.55014z" /><path
     id="path36"
     d="m555.96781 459.26605v19.89117h-3.951v-19.89117h-7.40023v-3.55014h18.78414v3.55014z" /><path
     id="path38"
     d="m593.65333 467.43793c0 6.69674-5.42338 11.88562-12.42278 11.88562s-12.42278-5.18888-12.42278-11.88562c0-6.73219 5.42338-11.82291 12.42278-11.82291s12.42278 5.12344 12.42278 11.82291zm-20.82915 0a8.40487 8.40487 0 0 0 8.43909 8.3382 8.30654 8.30654 0 1 0 -8.43909 -8.3382z" /><path
     id="path40"
     d="m638.38461 479.15722l-0.03272-17.5135-7.40023 15.06767h-2.57944l-7.40022-15.06767v17.5135h-3.71647v-23.44131h4.68717l7.73561 15.5721 7.70289-15.5721h4.65445v23.44131z" /><path
     id="path42"
     d="m653.60769 479.15722v-23.44131h3.951v23.44131z" /><path
     id="path44"
     d="m685.529 479.15722l-12.49095-16.81v16.81h-3.951v-23.44131h3.88552l12.55643 16.84546v-16.84546h3.88553v23.44131z" /><path
     id="path46"
     d="m700.98386 479.15722v-23.44131h3.951v23.44131z" /><path
     id="path48"
     d="m732.90517 479.15722l-12.49095-16.81v16.81h-3.951v-23.44131h3.8828l12.55912 16.84546v-16.84546h3.88552v23.44131z" /><path
     id="path50"
     d="m767.85037 467.637v8.64086a15.90029 15.90029 0 0 1 -9.10986 3.04571c-6.93123 0-12.32189-5.18888-12.32189-11.88562 0-6.69947 5.4561-11.82291 12.55639-11.82291a14.07806 14.07806 0 0 1 9.009 3.28293l-2.24407 2.9121a10.18484 10.18484 0 0 0 -6.7649 -2.67761 8.32507 8.32507 0 1 0 0.03272 16.64369 10.90963 10.90963 0 0 0 5.39338 -1.60874v-6.53041z" /><path
     id="path52"
     d="m317.01465 420.34375a68.58277 68.58277 0 1 1 68.58252 -68.583 68.66 68.66 0 0 1 -68.58252 68.583zm0-126.16943a57.58667 57.58667 0 1 0 57.58642 57.58691 57.65207 57.65207 0 0 0 -57.58642 -57.58691z" /><path
     id="path54"
     fill="#673ab7"
     d="m361.69407 351.76088a44.67936 44.67936 0 1 0 -89.35873 0v0.0002h89.35873z" /><polygon
     id="polygon56"
     points="799.812 385.943 799.812 369.283 799.812 363.394 839.766 363.394 839.766 351.012 799.812 351.012 799.812 328.933 844.44 328.933 844.44 316.55 786.029 316.55 786.029 398.325 799.812 398.325" /></svg>